<svg xmlns="http://www.w3.org/2000/svg" width="248" height="140" viewBox="0 0 248 140" role="img" aria-label="Trading profile ID copy guide">
  <rect width="248" height="140" fill="#101326"/>
  <rect width="248" height="41" fill="#232b43"/>
  <text x="16" y="27" fill="#a9caff" font-family="Arial, Helvetica, sans-serif" font-size="15">Торговый профиль</text>
  <rect x="21" y="63" width="206" height="74" rx="10" fill="#121833"/>
  <circle cx="64" cy="106" r="31" fill="#16223a"/>
  <circle cx="64" cy="106" r="30" fill="#dfe8f0" stroke="#25e65f" stroke-width="4"/>
  <path d="M49 123c2.6-9.7 8-15.2 15-15.2 7.1 0 12.5 5.5 15.1 15.2H49Z" fill="#8ea1ad"/>
  <circle cx="64" cy="99" r="10.7" fill="#acbdc9"/>
  <path d="M73 78h7v6h5v7h-5v6h-7v-6h-5v-7h5v-6Z" fill="#24e05d"/>
  <text x="110" y="92" fill="#ffffff" font-family="Arial, Helvetica, sans-serif" font-size="16" font-weight="700">User123759341</text>
  <text x="110" y="118" fill="#ffffff" font-family="Arial, Helvetica, sans-serif" font-size="12.5">UID 123759341</text>
  <g fill="none" stroke="#7d879d" stroke-width="2" stroke-linejoin="round">
    <rect x="202" y="106" width="9" height="11" rx="1.8"/>
    <rect x="207" y="101" width="9" height="11" rx="1.8"/>
  </g>
</svg>
